<svg xmlns="http://www.w3.org/2000/svg" xmlns:xlink="http://www.w3.org/1999/xlink" width="381" zoomAndPan="magnify" viewBox="0 0 285.75 58.499998" height="78" preserveAspectRatio="xMidYMid meet" version="1.2"><defs/><g id="6a353ba138"><g style="fill:#ffffff;fill-opacity:1;"><g transform="translate(12.088354, 39.121172)"><path style="stroke:none" d="M 15.652344 -7.8125 L 15.652344 -12.195312 L 5.753906 -12.195312 L 5.753906 -15.324219 L 15.652344 -15.324219 L 15.652344 -19.886719 L 0.773438 -19.886719 L 0.773438 0 L 5.753906 0 L 5.753906 -7.8125 Z M 15.652344 -7.8125 "/></g></g><g style="fill:#ffffff;fill-opacity:1;"><g transform="translate(28.182342, 39.121172)"><path style="stroke:none" d="M 15.710938 0 L 15.710938 -19.886719 L 10.734375 -19.886719 L 10.734375 -4.53125 L 5.753906 -4.53125 L 5.753906 -19.886719 L 0.773438 -19.886719 L 0.773438 0 Z M 15.710938 0 "/></g></g><g style="fill:#ffffff;fill-opacity:1;"><g transform="translate(44.335936, 39.121172)"><path style="stroke:none" d="M 15.710938 0 L 15.710938 -4.53125 L 5.753906 -4.53125 L 5.753906 -15.324219 L 15.710938 -15.324219 L 15.710938 -19.886719 L 0.773438 -19.886719 L 0.773438 0 Z M 15.710938 0 "/></g></g><g style="fill:#ffffff;fill-opacity:1;"><g transform="translate(60.310711, 39.121172)"><path style="stroke:none" d="M 15.710938 -15.324219 L 15.710938 -19.886719 L 10.734375 -19.886719 L 10.734375 -12.195312 L 5.753906 -12.195312 L 5.753906 -19.886719 L 0.773438 -19.886719 L 0.773438 0 L 5.753906 0 L 5.753906 -7.8125 L 7.871094 -7.8125 L 10.910156 0 L 15.652344 0 L 12.492188 -7.8125 L 14.726562 -7.8125 L 14.726562 -15.324219 Z M 15.710938 -15.324219 "/></g></g><g style="fill:#ffffff;fill-opacity:1;"><g transform="translate(76.136465, 39.121172)"><path style="stroke:none" d=""/></g></g><g style="fill:#ffffff;fill-opacity:1;"><g transform="translate(86.239872, 39.121172)"><path style="stroke:none" d="M 15.710938 0 L 15.710938 -4.53125 L 5.753906 -4.53125 L 5.753906 -15.324219 L 15.710938 -15.324219 L 15.710938 -19.886719 L 0.773438 -19.886719 L 0.773438 0 Z M 15.710938 0 "/></g></g><g style="fill:#ffffff;fill-opacity:1;"><g transform="translate(102.214647, 39.121172)"><path style="stroke:none" d="M 15.710938 0 L 15.710938 -19.886719 L 0.773438 -19.886719 L 0.773438 0 Z M 10.734375 -4.53125 L 5.753906 -4.53125 L 5.753906 -15.324219 L 10.734375 -15.324219 Z M 10.734375 -4.53125 "/></g></g><g style="fill:#ffffff;fill-opacity:1;"><g transform="translate(118.368241, 39.121172)"><path style="stroke:none" d="M 15.710938 -5.546875 L 15.710938 -19.886719 L 0.773438 -19.886719 L 0.773438 0 L 5.753906 0 L 5.753906 -5.546875 Z M 10.734375 -10.078125 L 5.753906 -10.078125 L 5.753906 -15.324219 L 10.734375 -15.324219 Z M 10.734375 -10.078125 "/></g></g><g style="fill:#ffffff;fill-opacity:1;"><g transform="translate(134.43242, 39.121172)"><path style="stroke:none" d="M 16.335938 -15.324219 L 16.335938 -19.886719 L 10.375 -19.886719 L 10.375 -12.222656 L 6.410156 -12.222656 L 6.410156 -19.886719 L 0.445312 -19.886719 L 0.445312 -15.324219 L 1.429688 -15.324219 L 1.429688 -7.839844 L 5.902344 -7.839844 L 5.902344 0 L 10.882812 0 L 10.882812 -7.839844 L 15.355469 -7.839844 L 15.355469 -15.324219 Z M 16.335938 -15.324219 "/></g></g><g style="fill:#ffffff;fill-opacity:1;"><g transform="translate(150.884057, 39.121172)"><path style="stroke:none" d="M 15.710938 0 L 12.789062 -5.546875 L 15.710938 -5.546875 L 15.710938 -19.886719 L 0.773438 -19.886719 L 0.773438 0 L 5.753906 0 L 5.753906 -5.546875 L 7.898438 -5.546875 L 10.734375 0 Z M 10.734375 -10.078125 L 5.753906 -10.078125 L 5.753906 -15.324219 L 10.734375 -15.324219 Z M 10.734375 -10.078125 "/></g></g><g style="fill:#ffffff;fill-opacity:1;"><g transform="translate(167.037652, 39.121172)"><path style="stroke:none" d="M 5.753906 0 L 5.753906 -19.886719 L 0.773438 -19.886719 L 0.773438 0 Z M 5.753906 0 "/></g></g><g style="fill:#ffffff;fill-opacity:1;"><g transform="translate(173.236746, 39.121172)"><path style="stroke:none" d="M 15.710938 0 L 15.710938 -7.8125 L 10.734375 -7.8125 L 10.734375 -4.53125 L 5.753906 -4.53125 L 5.753906 -15.324219 L 15.710938 -15.324219 L 15.710938 -19.886719 L 0.773438 -19.886719 L 0.773438 0 Z M 15.710938 0 "/></g></g><g style="fill:#ffffff;fill-opacity:1;"><g transform="translate(189.390341, 39.121172)"><path style="stroke:none" d="M 15.710938 0 L 15.710938 -19.886719 L 10.734375 -19.886719 L 10.734375 -12.195312 L 5.753906 -12.195312 L 5.753906 -19.886719 L 0.773438 -19.886719 L 0.773438 0 L 5.753906 0 L 5.753906 -7.8125 L 10.734375 -7.8125 L 10.734375 0 Z M 15.710938 0 "/></g></g><g style="fill:#ffffff;fill-opacity:1;"><g transform="translate(205.543935, 39.121172)"><path style="stroke:none" d="M 15.382812 -15.324219 L 15.382812 -19.886719 L 0.445312 -19.886719 L 0.445312 -15.324219 L 5.457031 -15.324219 L 5.457031 0 L 10.433594 0 L 10.433594 -15.324219 Z M 15.382812 -15.324219 "/></g></g><g style="fill:#ffffff;fill-opacity:1;"><g transform="translate(225.556904, 39.578432)"><path style="stroke:none" d="M 3.074219 0 L 3.074219 -2.421875 L 0.414062 -2.421875 L 0.414062 0 Z M 3.074219 0 "/></g></g><g style="fill:#ffffff;fill-opacity:1;"><g transform="translate(229.043076, 39.578432)"><path style="stroke:none" d="M 8.21875 0 L 8.21875 -10.625 L 0.238281 -10.625 L 0.238281 -8.1875 L 0.765625 -8.1875 L 0.765625 0 L 2.898438 0 L 2.898438 -8.1875 L 5.558594 -8.1875 L 5.558594 0 Z M 8.21875 0 "/></g></g><g style="fill:#ffffff;fill-opacity:1;"><g transform="translate(237.670939, 39.578432)"><path style="stroke:none" d="M 8.363281 0 L 8.363281 -2.421875 L 3.074219 -2.421875 L 3.074219 -4.171875 L 8.363281 -4.171875 L 8.363281 -6.515625 L 3.074219 -6.515625 L 3.074219 -8.1875 L 8.363281 -8.1875 L 8.363281 -10.625 L 0.414062 -10.625 L 0.414062 0 Z M 8.363281 0 "/></g></g><g style="fill:#ffffff;fill-opacity:1;"><g transform="translate(246.442072, 39.578432)"><path style="stroke:none" d="M 8.21875 -8.1875 L 8.21875 -10.625 L 0.238281 -10.625 L 0.238281 -8.1875 L 2.914062 -8.1875 L 2.914062 0 L 5.574219 0 L 5.574219 -8.1875 Z M 8.21875 -8.1875 "/></g></g></g></svg>