<svg xmlns="http://www.w3.org/2000/svg" xmlns:xlink="http://www.w3.org/1999/xlink" width="205" zoomAndPan="magnify" viewBox="0 0 153.75 75.749997" height="101" preserveAspectRatio="xMidYMid meet" version="1.0"><defs><g/><clipPath id="ea9d2c825f"><path d="M 9.324219 61.273438 L 60.164062 61.273438 L 60.164062 74.796875 L 9.324219 74.796875 Z M 9.324219 61.273438 " clip-rule="nonzero"/></clipPath><clipPath id="489434330e"><path d="M 0.324219 0.273438 L 51.164062 0.273438 L 51.164062 13.796875 L 0.324219 13.796875 Z M 0.324219 0.273438 " clip-rule="nonzero"/></clipPath><clipPath id="b55471b9f4"><rect x="0" width="52" y="0" height="14"/></clipPath></defs><g fill="#ffffff" fill-opacity="1"><g transform="translate(9.322938, 32.243568)"><g><path d="M 13.082031 -6.527344 L 13.082031 -10.191406 L 4.808594 -10.191406 L 4.808594 -12.804688 L 13.082031 -12.804688 L 13.082031 -16.617188 L 0.648438 -16.617188 L 0.648438 0 L 4.808594 0 L 4.808594 -6.527344 Z M 13.082031 -6.527344 "/></g></g></g><g fill="#ffffff" fill-opacity="1"><g transform="translate(22.776361, 32.243568)"><g><path d="M 13.128906 0 L 13.128906 -16.617188 L 8.96875 -16.617188 L 8.96875 -3.789062 L 4.808594 -3.789062 L 4.808594 -16.617188 L 0.648438 -16.617188 L 0.648438 0 Z M 13.128906 0 "/></g></g></g><g fill="#ffffff" fill-opacity="1"><g transform="translate(36.27962, 32.243568)"><g><path d="M 13.128906 0 L 13.128906 -3.789062 L 4.808594 -3.789062 L 4.808594 -12.804688 L 13.128906 -12.804688 L 13.128906 -16.617188 L 0.648438 -16.617188 L 0.648438 0 Z M 13.128906 0 "/></g></g></g><g fill="#ffffff" fill-opacity="1"><g transform="translate(49.633397, 32.243568)"><g><path d="M 13.128906 -12.804688 L 13.128906 -16.617188 L 8.96875 -16.617188 L 8.96875 -10.191406 L 4.808594 -10.191406 L 4.808594 -16.617188 L 0.648438 -16.617188 L 0.648438 0 L 4.808594 0 L 4.808594 -6.527344 L 6.578125 -6.527344 L 9.117188 0 L 13.082031 0 L 10.441406 -6.527344 L 12.308594 -6.527344 L 12.308594 -12.804688 Z M 13.128906 -12.804688 "/></g></g></g><g fill="#ffffff" fill-opacity="1"><g transform="translate(9.322938, 54.669553)"><g><path d="M 13.128906 0 L 13.128906 -3.789062 L 4.808594 -3.789062 L 4.808594 -12.804688 L 13.128906 -12.804688 L 13.128906 -16.617188 L 0.648438 -16.617188 L 0.648438 0 Z M 13.128906 0 "/></g></g></g><g fill="#ffffff" fill-opacity="1"><g transform="translate(22.676715, 54.669553)"><g><path d="M 13.128906 0 L 13.128906 -16.617188 L 0.648438 -16.617188 L 0.648438 0 Z M 8.96875 -3.789062 L 4.808594 -3.789062 L 4.808594 -12.804688 L 8.96875 -12.804688 Z M 8.96875 -3.789062 "/></g></g></g><g fill="#ffffff" fill-opacity="1"><g transform="translate(36.179973, 54.669553)"><g><path d="M 13.128906 -4.632812 L 13.128906 -16.617188 L 0.648438 -16.617188 L 0.648438 0 L 4.808594 0 L 4.808594 -4.632812 Z M 8.96875 -8.421875 L 4.808594 -8.421875 L 4.808594 -12.804688 L 8.96875 -12.804688 Z M 8.96875 -8.421875 "/></g></g></g><g fill="#ffffff" fill-opacity="1"><g transform="translate(49.608485, 54.669553)"><g><path d="M 13.652344 -12.804688 L 13.652344 -16.617188 L 8.671875 -16.617188 L 8.671875 -10.214844 L 5.355469 -10.214844 L 5.355469 -16.617188 L 0.375 -16.617188 L 0.375 -12.804688 L 1.195312 -12.804688 L 1.195312 -6.550781 L 4.933594 -6.550781 L 4.933594 0 L 9.09375 0 L 9.09375 -6.550781 L 12.832031 -6.550781 L 12.832031 -12.804688 Z M 13.652344 -12.804688 "/></g></g></g><g fill="#ffffff" fill-opacity="1"><g transform="translate(63.360883, 54.669553)"><g><path d="M 13.128906 0 L 10.6875 -4.632812 L 13.128906 -4.632812 L 13.128906 -16.617188 L 0.648438 -16.617188 L 0.648438 0 L 4.808594 0 L 4.808594 -4.632812 L 6.601562 -4.632812 L 8.96875 0 Z M 8.96875 -8.421875 L 4.808594 -8.421875 L 4.808594 -12.804688 L 8.96875 -12.804688 Z M 8.96875 -8.421875 "/></g></g></g><g fill="#ffffff" fill-opacity="1"><g transform="translate(76.864141, 54.669553)"><g><path d="M 4.808594 0 L 4.808594 -16.617188 L 0.648438 -16.617188 L 0.648438 0 Z M 4.808594 0 "/></g></g></g><g fill="#ffffff" fill-opacity="1"><g transform="translate(82.046181, 54.669553)"><g><path d="M 13.128906 0 L 13.128906 -6.527344 L 8.96875 -6.527344 L 8.96875 -3.789062 L 4.808594 -3.789062 L 4.808594 -12.804688 L 13.128906 -12.804688 L 13.128906 -16.617188 L 0.648438 -16.617188 L 0.648438 0 Z M 13.128906 0 "/></g></g></g><g fill="#ffffff" fill-opacity="1"><g transform="translate(95.549439, 54.669553)"><g><path d="M 13.128906 0 L 13.128906 -16.617188 L 8.96875 -16.617188 L 8.96875 -10.191406 L 4.808594 -10.191406 L 4.808594 -16.617188 L 0.648438 -16.617188 L 0.648438 0 L 4.808594 0 L 4.808594 -6.527344 L 8.96875 -6.527344 L 8.96875 0 Z M 13.128906 0 "/></g></g></g><g fill="#ffffff" fill-opacity="1"><g transform="translate(109.052697, 54.669553)"><g><path d="M 12.855469 -12.804688 L 12.855469 -16.617188 L 0.375 -16.617188 L 0.375 -12.804688 L 4.558594 -12.804688 L 4.558594 0 L 8.71875 0 L 8.71875 -12.804688 Z M 12.855469 -12.804688 "/></g></g></g><g clip-path="url(#ea9d2c825f)"><g transform="matrix(1, 0, 0, 1, 9, 61)"><g clip-path="url(#b55471b9f4)"><g clip-path="url(#489434330e)"><path fill="#ffffff" d="M 0.324219 0.273438 L 51.148438 0.273438 L 51.148438 13.796875 L 0.324219 13.796875 Z M 0.324219 0.273438 " fill-opacity="1" fill-rule="nonzero"/></g></g></g></g><g fill="#000000" fill-opacity="1"><g transform="translate(18.587842, 70.243147)"><g><path d="M 4.761719 0 L 4.761719 -1.375 L 1.746094 -1.375 L 1.746094 -4.644531 L 4.761719 -4.644531 L 4.761719 -6.027344 L 0.234375 -6.027344 L 0.234375 0 Z M 4.761719 0 "/></g></g></g><g fill="#000000" fill-opacity="1"><g transform="translate(24.349181, 70.243147)"><g><path d="M 1.746094 0 L 1.746094 -6.027344 L 0.234375 -6.027344 L 0.234375 0 Z M 1.746094 0 "/></g></g></g><g fill="#000000" fill-opacity="1"><g transform="translate(27.149098, 70.243147)"><g><path d="M 4.664062 0 L 4.664062 -6.027344 L 0.136719 -6.027344 L 0.136719 -4.644531 L 0.433594 -4.644531 L 0.433594 0 L 1.644531 0 L 1.644531 -4.644531 L 3.152344 -4.644531 L 3.152344 0 Z M 4.664062 0 "/></g></g></g><g fill="#000000" fill-opacity="1"><g transform="translate(32.86529, 70.243147)"><g><path d="M 4.746094 0 L 4.746094 -1.375 L 1.746094 -1.375 L 1.746094 -2.367188 L 4.746094 -2.367188 L 4.746094 -3.695312 L 1.746094 -3.695312 L 1.746094 -4.644531 L 4.746094 -4.644531 L 4.746094 -6.027344 L 0.234375 -6.027344 L 0.234375 0 Z M 4.746094 0 "/></g></g></g><g fill="#000000" fill-opacity="1"><g transform="translate(38.662742, 70.243147)"><g><path d="M 6.164062 0 L 6.164062 -6.027344 L 0.136719 -6.027344 L 0.136719 -4.644531 L 0.433594 -4.644531 L 0.433594 0 L 1.644531 0 L 1.644531 -4.644531 L 2.394531 -4.644531 L 2.394531 0 L 3.902344 0 L 3.902344 -4.644531 L 4.65625 -4.644531 L 4.65625 0 Z M 6.164062 0 "/></g></g></g><g fill="#000000" fill-opacity="1"><g transform="translate(45.877707, 70.243147)"><g><path d="M 4.761719 0 L 4.761719 -6.027344 L 0.234375 -6.027344 L 0.234375 0 L 1.746094 0 L 1.746094 -1.679688 L 3.253906 -1.679688 L 3.253906 0 Z M 3.253906 -3.054688 L 1.746094 -3.054688 L 1.746094 -4.644531 L 3.253906 -4.644531 Z M 3.253906 -3.054688 "/></g></g></g></svg>