<svg xmlns="http://www.w3.org/2000/svg" xmlns:xlink="http://www.w3.org/1999/xlink" width="350" zoomAndPan="magnify" viewBox="0 0 262.5 127.500001" height="170" preserveAspectRatio="xMidYMid meet" version="1.0"><defs><g/><clipPath id="ae05343fd5"><rect x="0" width="245" y="0" height="121"/></clipPath></defs><g transform="matrix(1, 0, 0, 1, 8, 3)"><g clip-path="url(#ae05343fd5)"><g fill="#ffffff" fill-opacity="1"><g transform="translate(0.670253, 55.918943)"><g><path d="M 28.214844 -14.078125 L 28.214844 -21.980469 L 10.371094 -21.980469 L 10.371094 -27.621094 L 28.214844 -27.621094 L 28.214844 -35.84375 L 1.398438 -35.84375 L 1.398438 0 L 10.371094 0 L 10.371094 -14.078125 Z M 28.214844 -14.078125 "/></g></g></g><g fill="#ffffff" fill-opacity="1"><g transform="translate(29.68519, 55.918943)"><g><path d="M 28.320312 0 L 28.320312 -35.84375 L 19.347656 -35.84375 L 19.347656 -8.167969 L 10.371094 -8.167969 L 10.371094 -35.84375 L 1.398438 -35.84375 L 1.398438 0 Z M 28.320312 0 "/></g></g></g><g fill="#ffffff" fill-opacity="1"><g transform="translate(58.807589, 55.918943)"><g><path d="M 28.320312 0 L 28.320312 -8.167969 L 10.371094 -8.167969 L 10.371094 -27.621094 L 28.320312 -27.621094 L 28.320312 -35.84375 L 1.398438 -35.84375 L 1.398438 0 Z M 28.320312 0 "/></g></g></g><g fill="#ffffff" fill-opacity="1"><g transform="translate(87.607603, 55.918943)"><g><path d="M 28.320312 -27.621094 L 28.320312 -35.84375 L 19.347656 -35.84375 L 19.347656 -21.980469 L 10.371094 -21.980469 L 10.371094 -35.84375 L 1.398438 -35.84375 L 1.398438 0 L 10.371094 0 L 10.371094 -14.078125 L 14.1875 -14.078125 L 19.667969 0 L 28.214844 0 L 22.515625 -14.078125 L 26.546875 -14.078125 L 26.546875 -27.621094 Z M 28.320312 -27.621094 "/></g></g></g><g fill="#ffffff" fill-opacity="1"><g transform="translate(0.670253, 104.793977)"><g><path d="M 28.320312 0 L 28.320312 -8.167969 L 10.371094 -8.167969 L 10.371094 -27.621094 L 28.320312 -27.621094 L 28.320312 -35.84375 L 1.398438 -35.84375 L 1.398438 0 Z M 28.320312 0 "/></g></g></g><g fill="#ffffff" fill-opacity="1"><g transform="translate(29.470267, 104.793977)"><g><path d="M 28.320312 0 L 28.320312 -35.84375 L 1.398438 -35.84375 L 1.398438 0 Z M 19.347656 -8.167969 L 10.371094 -8.167969 L 10.371094 -27.621094 L 19.347656 -27.621094 Z M 19.347656 -8.167969 "/></g></g></g><g fill="#ffffff" fill-opacity="1"><g transform="translate(58.592665, 104.793977)"><g><path d="M 28.320312 -9.996094 L 28.320312 -35.84375 L 1.398438 -35.84375 L 1.398438 0 L 10.371094 0 L 10.371094 -9.996094 Z M 19.347656 -18.164062 L 10.371094 -18.164062 L 10.371094 -27.621094 L 19.347656 -27.621094 Z M 19.347656 -18.164062 "/></g></g></g><g fill="#ffffff" fill-opacity="1"><g transform="translate(87.553872, 104.793977)"><g><path d="M 29.449219 -27.621094 L 29.449219 -35.84375 L 18.703125 -35.84375 L 18.703125 -22.035156 L 11.554688 -22.035156 L 11.554688 -35.84375 L 0.804688 -35.84375 L 0.804688 -27.621094 L 2.578125 -27.621094 L 2.578125 -14.132812 L 10.640625 -14.132812 L 10.640625 0 L 19.613281 0 L 19.613281 -14.132812 L 27.675781 -14.132812 L 27.675781 -27.621094 Z M 29.449219 -27.621094 "/></g></g></g><g fill="#ffffff" fill-opacity="1"><g transform="translate(117.213588, 104.793977)"><g><path d="M 28.320312 0 L 23.054688 -9.996094 L 28.320312 -9.996094 L 28.320312 -35.84375 L 1.398438 -35.84375 L 1.398438 0 L 10.371094 0 L 10.371094 -9.996094 L 14.242188 -9.996094 L 19.347656 0 Z M 19.347656 -18.164062 L 10.371094 -18.164062 L 10.371094 -27.621094 L 19.347656 -27.621094 Z M 19.347656 -18.164062 "/></g></g></g><g fill="#ffffff" fill-opacity="1"><g transform="translate(146.335987, 104.793977)"><g><path d="M 10.371094 0 L 10.371094 -35.84375 L 1.398438 -35.84375 L 1.398438 0 Z M 10.371094 0 "/></g></g></g><g fill="#ffffff" fill-opacity="1"><g transform="translate(157.512037, 104.793977)"><g><path d="M 28.320312 0 L 28.320312 -14.078125 L 19.347656 -14.078125 L 19.347656 -8.167969 L 10.371094 -8.167969 L 10.371094 -27.621094 L 28.320312 -27.621094 L 28.320312 -35.84375 L 1.398438 -35.84375 L 1.398438 0 Z M 28.320312 0 "/></g></g></g><g fill="#ffffff" fill-opacity="1"><g transform="translate(186.634436, 104.793977)"><g><path d="M 28.320312 0 L 28.320312 -35.84375 L 19.347656 -35.84375 L 19.347656 -21.980469 L 10.371094 -21.980469 L 10.371094 -35.84375 L 1.398438 -35.84375 L 1.398438 0 L 10.371094 0 L 10.371094 -14.078125 L 19.347656 -14.078125 L 19.347656 0 Z M 28.320312 0 "/></g></g></g><g fill="#ffffff" fill-opacity="1"><g transform="translate(215.756834, 104.793977)"><g><path d="M 27.730469 -27.621094 L 27.730469 -35.84375 L 0.804688 -35.84375 L 0.804688 -27.621094 L 9.835938 -27.621094 L 9.835938 0 L 18.808594 0 L 18.808594 -27.621094 Z M 27.730469 -27.621094 "/></g></g></g></g></g></svg>