<svg xmlns="http://www.w3.org/2000/svg" xmlns:xlink="http://www.w3.org/1999/xlink" width="233" zoomAndPan="magnify" viewBox="0 0 174.75 97.5" height="130" preserveAspectRatio="xMidYMid meet" version="1.2"><defs/><g id="c93ec6ae06"><g style="fill:#ffffff;fill-opacity:1;"><g transform="translate(11.360334, 39.254242)"><path style="stroke:none" d="M 15.703125 -7.835938 L 15.703125 -12.234375 L 5.773438 -12.234375 L 5.773438 -15.375 L 15.703125 -15.375 L 15.703125 -19.953125 L 0.777344 -19.953125 L 0.777344 0 L 5.773438 0 L 5.773438 -7.835938 Z M 15.703125 -7.835938 "/></g></g><g style="fill:#ffffff;fill-opacity:1;"><g transform="translate(27.509064, 39.254242)"><path style="stroke:none" d="M 15.765625 0 L 15.765625 -19.953125 L 10.769531 -19.953125 L 10.769531 -4.546875 L 5.773438 -4.546875 L 5.773438 -19.953125 L 0.777344 -19.953125 L 0.777344 0 Z M 15.765625 0 "/></g></g><g style="fill:#ffffff;fill-opacity:1;"><g transform="translate(43.717603, 39.254242)"><path style="stroke:none" d="M 15.765625 0 L 15.765625 -4.546875 L 5.773438 -4.546875 L 5.773438 -15.375 L 15.765625 -15.375 L 15.765625 -19.953125 L 0.777344 -19.953125 L 0.777344 0 Z M 15.765625 0 "/></g></g><g style="fill:#ffffff;fill-opacity:1;"><g transform="translate(59.746714, 39.254242)"><path style="stroke:none" d="M 15.765625 -15.375 L 15.765625 -19.953125 L 10.769531 -19.953125 L 10.769531 -12.234375 L 5.773438 -12.234375 L 5.773438 -19.953125 L 0.777344 -19.953125 L 0.777344 0 L 5.773438 0 L 5.773438 -7.835938 L 7.898438 -7.835938 L 10.949219 0 L 15.703125 0 L 12.535156 -7.835938 L 14.777344 -7.835938 L 14.777344 -15.375 Z M 15.765625 -15.375 "/></g></g><g style="fill:#ffffff;fill-opacity:1;"><g transform="translate(11.360334, 66.116486)"><path style="stroke:none" d="M 15.765625 0 L 15.765625 -4.546875 L 5.773438 -4.546875 L 5.773438 -15.375 L 15.765625 -15.375 L 15.765625 -19.953125 L 0.777344 -19.953125 L 0.777344 0 Z M 15.765625 0 "/></g></g><g style="fill:#ffffff;fill-opacity:1;"><g transform="translate(27.389445, 66.116486)"><path style="stroke:none" d="M 15.765625 0 L 15.765625 -19.953125 L 0.777344 -19.953125 L 0.777344 0 Z M 10.769531 -4.546875 L 5.773438 -4.546875 L 5.773438 -15.375 L 10.769531 -15.375 Z M 10.769531 -4.546875 "/></g></g><g style="fill:#ffffff;fill-opacity:1;"><g transform="translate(43.597985, 66.116486)"><path style="stroke:none" d="M 15.765625 -5.5625 L 15.765625 -19.953125 L 0.777344 -19.953125 L 0.777344 0 L 5.773438 0 L 5.773438 -5.5625 Z M 10.769531 -10.109375 L 5.773438 -10.109375 L 5.773438 -15.375 L 10.769531 -15.375 Z M 10.769531 -10.109375 "/></g></g><g style="fill:#ffffff;fill-opacity:1;"><g transform="translate(59.716804, 66.116486)"><path style="stroke:none" d="M 16.394531 -15.375 L 16.394531 -19.953125 L 10.410156 -19.953125 L 10.410156 -12.265625 L 6.429688 -12.265625 L 6.429688 -19.953125 L 0.449219 -19.953125 L 0.449219 -15.375 L 1.4375 -15.375 L 1.4375 -7.867188 L 5.921875 -7.867188 L 5.921875 0 L 10.917969 0 L 10.917969 -7.867188 L 15.40625 -7.867188 L 15.40625 -15.375 Z M 16.394531 -15.375 "/></g></g><g style="fill:#ffffff;fill-opacity:1;"><g transform="translate(76.224399, 66.116486)"><path style="stroke:none" d="M 15.765625 0 L 12.832031 -5.5625 L 15.765625 -5.5625 L 15.765625 -19.953125 L 0.777344 -19.953125 L 0.777344 0 L 5.773438 0 L 5.773438 -5.5625 L 7.925781 -5.5625 L 10.769531 0 Z M 10.769531 -10.109375 L 5.773438 -10.109375 L 5.773438 -15.375 L 10.769531 -15.375 Z M 10.769531 -10.109375 "/></g></g><g style="fill:#ffffff;fill-opacity:1;"><g transform="translate(92.432939, 66.116486)"><path style="stroke:none" d="M 5.773438 0 L 5.773438 -19.953125 L 0.777344 -19.953125 L 0.777344 0 Z M 5.773438 0 "/></g></g><g style="fill:#ffffff;fill-opacity:1;"><g transform="translate(98.653119, 66.116486)"><path style="stroke:none" d="M 15.765625 0 L 15.765625 -7.835938 L 10.769531 -7.835938 L 10.769531 -4.546875 L 5.773438 -4.546875 L 5.773438 -15.375 L 15.765625 -15.375 L 15.765625 -19.953125 L 0.777344 -19.953125 L 0.777344 0 Z M 15.765625 0 "/></g></g><g style="fill:#ffffff;fill-opacity:1;"><g transform="translate(114.861658, 66.116486)"><path style="stroke:none" d="M 15.765625 0 L 15.765625 -19.953125 L 10.769531 -19.953125 L 10.769531 -12.234375 L 5.773438 -12.234375 L 5.773438 -19.953125 L 0.777344 -19.953125 L 0.777344 0 L 5.773438 0 L 5.773438 -7.835938 L 10.769531 -7.835938 L 10.769531 0 Z M 15.765625 0 "/></g></g><g style="fill:#ffffff;fill-opacity:1;"><g transform="translate(131.070197, 66.116486)"><path style="stroke:none" d="M 15.4375 -15.375 L 15.4375 -19.953125 L 0.449219 -19.953125 L 0.449219 -15.375 L 5.472656 -15.375 L 5.472656 0 L 10.46875 0 L 10.46875 -15.375 Z M 15.4375 -15.375 "/></g></g><g style="fill:#ffffff;fill-opacity:1;"><g transform="translate(11.360334, 86.949758)"><path style="stroke:none" d="M 3.085938 0 L 3.085938 -2.429688 L 0.414062 -2.429688 L 0.414062 0 Z M 3.085938 0 "/></g></g><g style="fill:#ffffff;fill-opacity:1;"><g transform="translate(14.858364, 86.949758)"><path style="stroke:none" d="M 8.246094 0 L 8.246094 -10.660156 L 0.238281 -10.660156 L 0.238281 -8.214844 L 0.765625 -8.214844 L 0.765625 0 L 2.910156 0 L 2.910156 -8.214844 L 5.578125 -8.214844 L 5.578125 0 Z M 8.246094 0 "/></g></g><g style="fill:#ffffff;fill-opacity:1;"><g transform="translate(23.515574, 86.949758)"><path style="stroke:none" d="M 8.390625 0 L 8.390625 -2.429688 L 3.085938 -2.429688 L 3.085938 -4.1875 L 8.390625 -4.1875 L 8.390625 -6.535156 L 3.085938 -6.535156 L 3.085938 -8.214844 L 8.390625 -8.214844 L 8.390625 -10.660156 L 0.414062 -10.660156 L 0.414062 0 Z M 8.390625 0 "/></g></g><g style="fill:#ffffff;fill-opacity:1;"><g transform="translate(32.31654, 86.949758)"><path style="stroke:none" d="M 8.246094 -8.214844 L 8.246094 -10.660156 L 0.238281 -10.660156 L 0.238281 -8.214844 L 2.925781 -8.214844 L 2.925781 0 L 5.59375 0 L 5.59375 -8.214844 Z M 8.246094 -8.214844 "/></g></g></g></svg>