<svg xmlns="http://www.w3.org/2000/svg" xmlns:xlink="http://www.w3.org/1999/xlink" width="391" zoomAndPan="magnify" viewBox="0 0 293.25 85.499998" height="114" preserveAspectRatio="xMidYMid meet" version="1.2"><defs><clipPath id="977b9d2dce"><path d="M 10.203125 45.390625 L 60.917969 45.390625 L 60.917969 58.882812 L 10.203125 58.882812 Z M 10.203125 45.390625 "/></clipPath><clipPath id="cb85cff878"><path d="M 0.203125 0.390625 L 50.917969 0.390625 L 50.917969 13.882812 L 0.203125 13.882812 Z M 0.203125 0.390625 "/></clipPath><clipPath id="b0ef45dbb1"><rect x="0" width="51" y="0" height="14"/></clipPath></defs><g id="9a60a818a8"><g style="fill:#ffffff;fill-opacity:1;"><g transform="translate(9.837073, 42.549577)"><path style="stroke:none" d="M 10.652344 -5.316406 L 10.652344 -8.296875 L 3.914062 -8.296875 L 3.914062 -10.429688 L 10.652344 -10.429688 L 10.652344 -13.53125 L 0.527344 -13.53125 L 0.527344 0 L 3.914062 0 L 3.914062 -5.316406 Z M 10.652344 -5.316406 "/></g></g><g style="fill:#ffffff;fill-opacity:1;"><g transform="translate(20.790155, 42.549577)"><path style="stroke:none" d="M 10.691406 0 L 10.691406 -13.53125 L 7.304688 -13.53125 L 7.304688 -3.082031 L 3.914062 -3.082031 L 3.914062 -13.53125 L 0.527344 -13.53125 L 0.527344 0 Z M 10.691406 0 "/></g></g><g style="fill:#ffffff;fill-opacity:1;"><g transform="translate(31.783809, 42.549577)"><path style="stroke:none" d="M 10.691406 0 L 10.691406 -3.082031 L 3.914062 -3.082031 L 3.914062 -10.429688 L 10.691406 -10.429688 L 10.691406 -13.53125 L 0.527344 -13.53125 L 0.527344 0 Z M 10.691406 0 "/></g></g><g style="fill:#ffffff;fill-opacity:1;"><g transform="translate(42.655758, 42.549577)"><path style="stroke:none" d="M 10.691406 -10.429688 L 10.691406 -13.53125 L 7.304688 -13.53125 L 7.304688 -8.296875 L 3.914062 -8.296875 L 3.914062 -13.53125 L 0.527344 -13.53125 L 0.527344 0 L 3.914062 0 L 3.914062 -5.316406 L 5.355469 -5.316406 L 7.425781 0 L 10.652344 0 L 8.5 -5.316406 L 10.023438 -5.316406 L 10.023438 -10.429688 Z M 10.691406 -10.429688 "/></g></g><g style="fill:#ffffff;fill-opacity:1;"><g transform="translate(63.963379, 58.052419)"><path style="stroke:none" d="M 23.160156 0 L 23.160156 -6.679688 L 8.480469 -6.679688 L 8.480469 -22.589844 L 23.160156 -22.589844 L 23.160156 -29.3125 L 1.144531 -29.3125 L 1.144531 0 Z M 23.160156 0 "/></g></g><g style="fill:#ffffff;fill-opacity:1;"><g transform="translate(87.51848, 58.052419)"><path style="stroke:none" d="M 23.160156 0 L 23.160156 -29.3125 L 1.144531 -29.3125 L 1.144531 0 Z M 15.820312 -6.679688 L 8.480469 -6.679688 L 8.480469 -22.589844 L 15.820312 -22.589844 Z M 15.820312 -6.679688 "/></g></g><g style="fill:#ffffff;fill-opacity:1;"><g transform="translate(111.337257, 58.052419)"><path style="stroke:none" d="M 23.160156 -8.175781 L 23.160156 -29.3125 L 1.144531 -29.3125 L 1.144531 0 L 8.480469 0 L 8.480469 -8.175781 Z M 15.820312 -14.855469 L 8.480469 -14.855469 L 8.480469 -22.589844 L 15.820312 -22.589844 Z M 15.820312 -14.855469 "/></g></g><g style="fill:#ffffff;fill-opacity:1;"><g transform="translate(135.02419, 58.052419)"><path style="stroke:none" d="M 24.082031 -22.589844 L 24.082031 -29.3125 L 15.292969 -29.3125 L 15.292969 -18.019531 L 9.449219 -18.019531 L 9.449219 -29.3125 L 0.660156 -29.3125 L 0.660156 -22.589844 L 2.109375 -22.589844 L 2.109375 -11.558594 L 8.703125 -11.558594 L 8.703125 0 L 16.042969 0 L 16.042969 -11.558594 L 22.632812 -11.558594 L 22.632812 -22.589844 Z M 24.082031 -22.589844 "/></g></g><g style="fill:#ffffff;fill-opacity:1;"><g transform="translate(159.282424, 58.052419)"><path style="stroke:none" d="M 23.160156 0 L 18.855469 -8.175781 L 23.160156 -8.175781 L 23.160156 -29.3125 L 1.144531 -29.3125 L 1.144531 0 L 8.480469 0 L 8.480469 -8.175781 L 11.644531 -8.175781 L 15.820312 0 Z M 15.820312 -14.855469 L 8.480469 -14.855469 L 8.480469 -22.589844 L 15.820312 -22.589844 Z M 15.820312 -14.855469 "/></g></g><g style="fill:#ffffff;fill-opacity:1;"><g transform="translate(183.1012, 58.052419)"><path style="stroke:none" d="M 8.480469 0 L 8.480469 -29.3125 L 1.144531 -29.3125 L 1.144531 0 Z M 8.480469 0 "/></g></g><g style="fill:#ffffff;fill-opacity:1;"><g transform="translate(192.241951, 58.052419)"><path style="stroke:none" d="M 23.160156 0 L 23.160156 -11.515625 L 15.820312 -11.515625 L 15.820312 -6.679688 L 8.480469 -6.679688 L 8.480469 -22.589844 L 23.160156 -22.589844 L 23.160156 -29.3125 L 1.144531 -29.3125 L 1.144531 0 Z M 23.160156 0 "/></g></g><g style="fill:#ffffff;fill-opacity:1;"><g transform="translate(216.060727, 58.052419)"><path style="stroke:none" d="M 23.160156 0 L 23.160156 -29.3125 L 15.820312 -29.3125 L 15.820312 -17.976562 L 8.480469 -17.976562 L 8.480469 -29.3125 L 1.144531 -29.3125 L 1.144531 0 L 8.480469 0 L 8.480469 -11.515625 L 15.820312 -11.515625 L 15.820312 0 Z M 23.160156 0 "/></g></g><g style="fill:#ffffff;fill-opacity:1;"><g transform="translate(239.879504, 58.052419)"><path style="stroke:none" d="M 22.675781 -22.589844 L 22.675781 -29.3125 L 0.660156 -29.3125 L 0.660156 -22.589844 L 8.042969 -22.589844 L 8.042969 0 L 15.382812 0 L 15.382812 -22.589844 Z M 22.675781 -22.589844 "/></g></g><g clip-rule="nonzero" clip-path="url(#977b9d2dce)"><g transform="matrix(1,0,0,1,10,45)"><g clip-path="url(#b0ef45dbb1)"><g clip-rule="nonzero" clip-path="url(#cb85cff878)"><path style=" stroke:none;fill-rule:nonzero;fill:#ffffff;fill-opacity:1;" d="M 0.203125 0.390625 L 50.902344 0.390625 L 50.902344 13.882812 L 0.203125 13.882812 Z M 0.203125 0.390625 "/></g></g></g></g><g style="fill:#000000;fill-opacity:1;"><g transform="translate(13.54873, 54.339366)"><path style="stroke:none" d="M 4.75 0 L 4.75 -6.011719 L 0.234375 -6.011719 L 0.234375 0 Z M 3.246094 -1.371094 L 1.738281 -1.371094 L 1.738281 -4.632812 L 3.246094 -4.632812 Z M 3.246094 -1.371094 "/></g></g><g style="fill:#000000;fill-opacity:1;"><g transform="translate(18.528971, 54.339366)"><path style="stroke:none" d="M 4.652344 0 L 4.652344 -6.011719 L 0.136719 -6.011719 L 0.136719 -4.632812 L 0.433594 -4.632812 L 0.433594 0 L 1.640625 0 L 1.640625 -4.632812 L 3.144531 -4.632812 L 3.144531 0 Z M 4.652344 0 "/></g></g><g style="fill:#000000;fill-opacity:1;"><g transform="translate(23.410147, 54.339366)"><path style="stroke:none" d=""/></g></g><g style="fill:#000000;fill-opacity:1;"><g transform="translate(26.562196, 54.339366)"><path style="stroke:none" d="M 4.660156 0 L 4.660156 -6.011719 L 0.144531 -6.011719 L 0.144531 -4.632812 L 0.441406 -4.632812 L 0.441406 -1.371094 L 0.144531 -1.371094 L 0.144531 0 Z M 3.15625 -1.371094 L 1.648438 -1.371094 L 1.648438 -4.632812 L 3.15625 -4.632812 Z M 3.15625 -1.371094 "/></g></g><g style="fill:#000000;fill-opacity:1;"><g transform="translate(31.452384, 54.339366)"><path style="stroke:none" d="M 4.734375 0 L 4.734375 -1.371094 L 1.738281 -1.371094 L 1.738281 -2.363281 L 4.734375 -2.363281 L 4.734375 -3.6875 L 1.738281 -3.6875 L 1.738281 -4.632812 L 4.734375 -4.632812 L 4.734375 -6.011719 L 0.234375 -6.011719 L 0.234375 0 Z M 4.734375 0 "/></g></g><g style="fill:#000000;fill-opacity:1;"><g transform="translate(36.414613, 54.339366)"><path style="stroke:none" d="M 6.148438 0 L 6.148438 -6.011719 L 0.136719 -6.011719 L 0.136719 -4.632812 L 0.433594 -4.632812 L 0.433594 0 L 1.640625 0 L 1.640625 -4.632812 L 2.390625 -4.632812 L 2.390625 0 L 3.894531 0 L 3.894531 -4.632812 L 4.644531 -4.632812 L 4.644531 0 Z M 6.148438 0 "/></g></g><g style="fill:#000000;fill-opacity:1;"><g transform="translate(42.790766, 54.339366)"><path style="stroke:none" d="M 4.75 0 L 4.75 -6.011719 L 0.234375 -6.011719 L 0.234375 0 L 1.738281 0 L 1.738281 -1.675781 L 3.246094 -1.675781 L 3.246094 0 Z M 3.246094 -3.046875 L 1.738281 -3.046875 L 1.738281 -4.632812 L 3.246094 -4.632812 Z M 3.246094 -3.046875 "/></g></g><g style="fill:#000000;fill-opacity:1;"><g transform="translate(47.771007, 54.339366)"><path style="stroke:none" d="M 4.652344 0 L 4.652344 -6.011719 L 0.136719 -6.011719 L 0.136719 -4.632812 L 0.433594 -4.632812 L 0.433594 0 L 1.640625 0 L 1.640625 -4.632812 L 3.144531 -4.632812 L 3.144531 0 Z M 4.652344 0 "/></g></g><g style="fill:#000000;fill-opacity:1;"><g transform="translate(52.652183, 54.339366)"><path style="stroke:none" d="M 4.660156 0 L 4.660156 -6.011719 L 0.144531 -6.011719 L 0.144531 -4.632812 L 0.441406 -4.632812 L 0.441406 -1.371094 L 0.144531 -1.371094 L 0.144531 0 Z M 3.15625 -1.371094 L 1.648438 -1.371094 L 1.648438 -4.632812 L 3.15625 -4.632812 Z M 3.15625 -1.371094 "/></g></g></g></svg>