<svg xmlns="http://www.w3.org/2000/svg" xmlns:xlink="http://www.w3.org/1999/xlink" width="233" zoomAndPan="magnify" viewBox="0 0 174.75 89.999999" height="120" preserveAspectRatio="xMidYMid meet" version="1.2"><defs><clipPath id="6ab37bdcf5"><path d="M 11.078125 75.265625 L 78.03125 75.265625 L 78.03125 89.816406 L 11.078125 89.816406 Z M 11.078125 75.265625 "/></clipPath><clipPath id="fb823c581c"><path d="M 0.078125 0.265625 L 67.03125 0.265625 L 67.03125 14.816406 L 0.078125 14.816406 Z M 0.078125 0.265625 "/></clipPath><clipPath id="4f456a08e0"><rect x="0" width="68" y="0" height="15"/></clipPath></defs><g id="feaf0ddff0"><g style="fill:#ffffff;fill-opacity:1;"><g transform="translate(11.079665, 39.463465)"><path style="stroke:none" d="M 15.761719 -7.867188 L 15.761719 -12.28125 L 5.792969 -12.28125 L 5.792969 -15.433594 L 15.761719 -15.433594 L 15.761719 -20.027344 L 0.78125 -20.027344 L 0.78125 0 L 5.792969 0 L 5.792969 -7.867188 Z M 15.761719 -7.867188 "/></g></g><g style="fill:#ffffff;fill-opacity:1;"><g transform="translate(27.28802, 39.463465)"><path style="stroke:none" d="M 15.824219 0 L 15.824219 -20.027344 L 10.808594 -20.027344 L 10.808594 -4.5625 L 5.792969 -4.5625 L 5.792969 -20.027344 L 0.78125 -20.027344 L 0.78125 0 Z M 15.824219 0 "/></g></g><g style="fill:#ffffff;fill-opacity:1;"><g transform="translate(43.556406, 39.463465)"><path style="stroke:none" d="M 15.824219 0 L 15.824219 -4.5625 L 5.792969 -4.5625 L 5.792969 -15.433594 L 15.824219 -15.433594 L 15.824219 -20.027344 L 0.78125 -20.027344 L 0.78125 0 Z M 15.824219 0 "/></g></g><g style="fill:#ffffff;fill-opacity:1;"><g transform="translate(59.644702, 39.463465)"><path style="stroke:none" d="M 15.824219 -15.433594 L 15.824219 -20.027344 L 10.808594 -20.027344 L 10.808594 -12.28125 L 5.792969 -12.28125 L 5.792969 -20.027344 L 0.78125 -20.027344 L 0.78125 0 L 5.792969 0 L 5.792969 -7.867188 L 7.925781 -7.867188 L 10.988281 0 L 15.761719 0 L 12.582031 -7.867188 L 14.832031 -7.867188 L 14.832031 -15.433594 Z M 15.824219 -15.433594 "/></g></g><g style="fill:#ffffff;fill-opacity:1;"><g transform="translate(11.079665, 66.424892)"><path style="stroke:none" d="M 15.824219 0 L 15.824219 -4.5625 L 5.792969 -4.5625 L 5.792969 -15.433594 L 15.824219 -15.433594 L 15.824219 -20.027344 L 0.78125 -20.027344 L 0.78125 0 Z M 15.824219 0 "/></g></g><g style="fill:#ffffff;fill-opacity:1;"><g transform="translate(27.16796, 66.424892)"><path style="stroke:none" d="M 15.824219 0 L 15.824219 -20.027344 L 0.78125 -20.027344 L 0.78125 0 Z M 10.808594 -4.5625 L 5.792969 -4.5625 L 5.792969 -15.433594 L 10.808594 -15.433594 Z M 10.808594 -4.5625 "/></g></g><g style="fill:#ffffff;fill-opacity:1;"><g transform="translate(43.436346, 66.424892)"><path style="stroke:none" d="M 15.824219 -5.585938 L 15.824219 -20.027344 L 0.78125 -20.027344 L 0.78125 0 L 5.792969 0 L 5.792969 -5.585938 Z M 10.808594 -10.148438 L 5.792969 -10.148438 L 5.792969 -15.433594 L 10.808594 -15.433594 Z M 10.808594 -10.148438 "/></g></g><g style="fill:#ffffff;fill-opacity:1;"><g transform="translate(59.614681, 66.424892)"><path style="stroke:none" d="M 16.453125 -15.433594 L 16.453125 -20.027344 L 10.449219 -20.027344 L 10.449219 -12.308594 L 6.457031 -12.308594 L 6.457031 -20.027344 L 0.449219 -20.027344 L 0.449219 -15.433594 L 1.441406 -15.433594 L 1.441406 -7.894531 L 5.945312 -7.894531 L 5.945312 0 L 10.957031 0 L 10.957031 -7.894531 L 15.460938 -7.894531 L 15.460938 -15.433594 Z M 16.453125 -15.433594 "/></g></g><g style="fill:#ffffff;fill-opacity:1;"><g transform="translate(76.183228, 66.424892)"><path style="stroke:none" d="M 15.824219 0 L 12.878906 -5.585938 L 15.824219 -5.585938 L 15.824219 -20.027344 L 0.78125 -20.027344 L 0.78125 0 L 5.792969 0 L 5.792969 -5.585938 L 7.957031 -5.585938 L 10.808594 0 Z M 10.808594 -10.148438 L 5.792969 -10.148438 L 5.792969 -15.433594 L 10.808594 -15.433594 Z M 10.808594 -10.148438 "/></g></g><g style="fill:#ffffff;fill-opacity:1;"><g transform="translate(92.451614, 66.424892)"><path style="stroke:none" d="M 5.792969 0 L 5.792969 -20.027344 L 0.78125 -20.027344 L 0.78125 0 Z M 5.792969 0 "/></g></g><g style="fill:#ffffff;fill-opacity:1;"><g transform="translate(98.694761, 66.424892)"><path style="stroke:none" d="M 15.824219 0 L 15.824219 -7.867188 L 10.808594 -7.867188 L 10.808594 -4.5625 L 5.792969 -4.5625 L 5.792969 -15.433594 L 15.824219 -15.433594 L 15.824219 -20.027344 L 0.78125 -20.027344 L 0.78125 0 Z M 15.824219 0 "/></g></g><g style="fill:#ffffff;fill-opacity:1;"><g transform="translate(114.963147, 66.424892)"><path style="stroke:none" d="M 15.824219 0 L 15.824219 -20.027344 L 10.808594 -20.027344 L 10.808594 -12.28125 L 5.792969 -12.28125 L 5.792969 -20.027344 L 0.78125 -20.027344 L 0.78125 0 L 5.792969 0 L 5.792969 -7.867188 L 10.808594 -7.867188 L 10.808594 0 Z M 15.824219 0 "/></g></g><g style="fill:#ffffff;fill-opacity:1;"><g transform="translate(131.231533, 66.424892)"><path style="stroke:none" d="M 15.492188 -15.433594 L 15.492188 -20.027344 L 0.449219 -20.027344 L 0.449219 -15.433594 L 5.496094 -15.433594 L 5.496094 0 L 10.507812 0 L 10.507812 -15.433594 Z M 15.492188 -15.433594 "/></g></g><g clip-rule="nonzero" clip-path="url(#6ab37bdcf5)"><g transform="matrix(1,0,0,1,11,75)"><g clip-path="url(#4f456a08e0)"><g clip-rule="nonzero" clip-path="url(#fb823c581c)"><path style=" stroke:none;fill-rule:nonzero;fill:#ffffff;fill-opacity:1;" d="M 0.078125 0.265625 L 67.027344 0.265625 L 67.027344 14.816406 L 0.078125 14.816406 Z M 0.078125 0.265625 "/></g></g></g></g><g style="fill:#000000;fill-opacity:1;"><g transform="translate(20.019999, 86.500594)"><path style="stroke:none" d="M 5.296875 0 L 5.296875 -6.703125 L 0.261719 -6.703125 L 0.261719 0 Z M 3.617188 -1.527344 L 1.941406 -1.527344 L 1.941406 -5.167969 L 3.617188 -5.167969 Z M 3.617188 -1.527344 "/></g></g><g style="fill:#000000;fill-opacity:1;"><g transform="translate(25.572305, 86.500594)"><path style="stroke:none" d="M 5.1875 0 L 5.1875 -6.703125 L 0.152344 -6.703125 L 0.152344 -5.167969 L 0.484375 -5.167969 L 0.484375 0 L 1.828125 0 L 1.828125 -5.167969 L 3.507812 -5.167969 L 3.507812 0 Z M 5.1875 0 "/></g></g><g style="fill:#000000;fill-opacity:1;"><g transform="translate(31.014173, 86.500594)"><path style="stroke:none" d=""/></g></g><g style="fill:#000000;fill-opacity:1;"><g transform="translate(34.528295, 86.500594)"><path style="stroke:none" d="M 5.195312 0 L 5.195312 -6.703125 L 0.160156 -6.703125 L 0.160156 -5.167969 L 0.492188 -5.167969 L 0.492188 -1.527344 L 0.160156 -1.527344 L 0.160156 0 Z M 3.519531 -1.527344 L 1.839844 -1.527344 L 1.839844 -5.167969 L 3.519531 -5.167969 Z M 3.519531 -1.527344 "/></g></g><g style="fill:#000000;fill-opacity:1;"><g transform="translate(39.980197, 86.500594)"><path style="stroke:none" d="M 5.277344 0 L 5.277344 -1.527344 L 1.941406 -1.527344 L 1.941406 -2.632812 L 5.277344 -2.632812 L 5.277344 -4.109375 L 1.941406 -4.109375 L 1.941406 -5.167969 L 5.277344 -5.167969 L 5.277344 -6.703125 L 0.261719 -6.703125 L 0.261719 0 Z M 5.277344 0 "/></g></g><g style="fill:#000000;fill-opacity:1;"><g transform="translate(45.512425, 86.500594)"><path style="stroke:none" d="M 6.855469 0 L 6.855469 -6.703125 L 0.152344 -6.703125 L 0.152344 -5.167969 L 0.484375 -5.167969 L 0.484375 0 L 1.828125 0 L 1.828125 -5.167969 L 2.664062 -5.167969 L 2.664062 0 L 4.34375 0 L 4.34375 -5.167969 L 5.175781 -5.167969 L 5.175781 0 Z M 6.855469 0 "/></g></g><g style="fill:#000000;fill-opacity:1;"><g transform="translate(52.620983, 86.500594)"><path style="stroke:none" d="M 5.296875 0 L 5.296875 -6.703125 L 0.261719 -6.703125 L 0.261719 0 L 1.941406 0 L 1.941406 -1.871094 L 3.617188 -1.871094 L 3.617188 0 Z M 3.617188 -3.398438 L 1.941406 -3.398438 L 1.941406 -5.167969 L 3.617188 -5.167969 Z M 3.617188 -3.398438 "/></g></g><g style="fill:#000000;fill-opacity:1;"><g transform="translate(58.173289, 86.500594)"><path style="stroke:none" d="M 5.1875 0 L 5.1875 -6.703125 L 0.152344 -6.703125 L 0.152344 -5.167969 L 0.484375 -5.167969 L 0.484375 0 L 1.828125 0 L 1.828125 -5.167969 L 3.507812 -5.167969 L 3.507812 0 Z M 5.1875 0 "/></g></g><g style="fill:#000000;fill-opacity:1;"><g transform="translate(63.615157, 86.500594)"><path style="stroke:none" d="M 5.195312 0 L 5.195312 -6.703125 L 0.160156 -6.703125 L 0.160156 -5.167969 L 0.492188 -5.167969 L 0.492188 -1.527344 L 0.160156 -1.527344 L 0.160156 0 Z M 3.519531 -1.527344 L 1.839844 -1.527344 L 1.839844 -5.167969 L 3.519531 -5.167969 Z M 3.519531 -1.527344 "/></g></g></g></svg>