<svg xmlns="http://www.w3.org/2000/svg" xmlns:xlink="http://www.w3.org/1999/xlink" width="357" zoomAndPan="magnify" viewBox="0 0 267.75 58.499998" height="78" preserveAspectRatio="xMidYMid meet" version="1.2"><defs/><g id="517fb6dcfd"><g style="fill:#ffffff;fill-opacity:1;"><g transform="translate(12.012083, 39.121172)"><path style="stroke:none" d="M 15.652344 -7.8125 L 15.652344 -12.195312 L 5.753906 -12.195312 L 5.753906 -15.324219 L 15.652344 -15.324219 L 15.652344 -19.886719 L 0.773438 -19.886719 L 0.773438 0 L 5.753906 0 L 5.753906 -7.8125 Z M 15.652344 -7.8125 "/></g></g><g style="fill:#ffffff;fill-opacity:1;"><g transform="translate(28.106071, 39.121172)"><path style="stroke:none" d="M 15.710938 0 L 15.710938 -19.886719 L 10.734375 -19.886719 L 10.734375 -4.53125 L 5.753906 -4.53125 L 5.753906 -19.886719 L 0.773438 -19.886719 L 0.773438 0 Z M 15.710938 0 "/></g></g><g style="fill:#ffffff;fill-opacity:1;"><g transform="translate(44.259665, 39.121172)"><path style="stroke:none" d="M 15.710938 0 L 15.710938 -4.53125 L 5.753906 -4.53125 L 5.753906 -15.324219 L 15.710938 -15.324219 L 15.710938 -19.886719 L 0.773438 -19.886719 L 0.773438 0 Z M 15.710938 0 "/></g></g><g style="fill:#ffffff;fill-opacity:1;"><g transform="translate(60.23444, 39.121172)"><path style="stroke:none" d="M 15.710938 -15.324219 L 15.710938 -19.886719 L 10.734375 -19.886719 L 10.734375 -12.195312 L 5.753906 -12.195312 L 5.753906 -19.886719 L 0.773438 -19.886719 L 0.773438 0 L 5.753906 0 L 5.753906 -7.8125 L 7.871094 -7.8125 L 10.910156 0 L 15.652344 0 L 12.492188 -7.8125 L 14.726562 -7.8125 L 14.726562 -15.324219 Z M 15.710938 -15.324219 "/></g></g><g style="fill:#ffffff;fill-opacity:1;"><g transform="translate(76.060193, 39.121172)"><path style="stroke:none" d=""/></g></g><g style="fill:#ffffff;fill-opacity:1;"><g transform="translate(86.163601, 39.121172)"><path style="stroke:none" d="M 15.710938 0 L 15.710938 -4.53125 L 5.753906 -4.53125 L 5.753906 -15.324219 L 15.710938 -15.324219 L 15.710938 -19.886719 L 0.773438 -19.886719 L 0.773438 0 Z M 15.710938 0 "/></g></g><g style="fill:#ffffff;fill-opacity:1;"><g transform="translate(102.138376, 39.121172)"><path style="stroke:none" d="M 15.710938 0 L 15.710938 -19.886719 L 0.773438 -19.886719 L 0.773438 0 Z M 10.734375 -4.53125 L 5.753906 -4.53125 L 5.753906 -15.324219 L 10.734375 -15.324219 Z M 10.734375 -4.53125 "/></g></g><g style="fill:#ffffff;fill-opacity:1;"><g transform="translate(118.29197, 39.121172)"><path style="stroke:none" d="M 15.710938 -5.546875 L 15.710938 -19.886719 L 0.773438 -19.886719 L 0.773438 0 L 5.753906 0 L 5.753906 -5.546875 Z M 10.734375 -10.078125 L 5.753906 -10.078125 L 5.753906 -15.324219 L 10.734375 -15.324219 Z M 10.734375 -10.078125 "/></g></g><g style="fill:#ffffff;fill-opacity:1;"><g transform="translate(134.356148, 39.121172)"><path style="stroke:none" d="M 16.335938 -15.324219 L 16.335938 -19.886719 L 10.375 -19.886719 L 10.375 -12.222656 L 6.410156 -12.222656 L 6.410156 -19.886719 L 0.445312 -19.886719 L 0.445312 -15.324219 L 1.429688 -15.324219 L 1.429688 -7.839844 L 5.902344 -7.839844 L 5.902344 0 L 10.882812 0 L 10.882812 -7.839844 L 15.355469 -7.839844 L 15.355469 -15.324219 Z M 16.335938 -15.324219 "/></g></g><g style="fill:#ffffff;fill-opacity:1;"><g transform="translate(150.807786, 39.121172)"><path style="stroke:none" d="M 15.710938 0 L 12.789062 -5.546875 L 15.710938 -5.546875 L 15.710938 -19.886719 L 0.773438 -19.886719 L 0.773438 0 L 5.753906 0 L 5.753906 -5.546875 L 7.898438 -5.546875 L 10.734375 0 Z M 10.734375 -10.078125 L 5.753906 -10.078125 L 5.753906 -15.324219 L 10.734375 -15.324219 Z M 10.734375 -10.078125 "/></g></g><g style="fill:#ffffff;fill-opacity:1;"><g transform="translate(166.96138, 39.121172)"><path style="stroke:none" d="M 5.753906 0 L 5.753906 -19.886719 L 0.773438 -19.886719 L 0.773438 0 Z M 5.753906 0 "/></g></g><g style="fill:#ffffff;fill-opacity:1;"><g transform="translate(173.160475, 39.121172)"><path style="stroke:none" d="M 15.710938 0 L 15.710938 -7.8125 L 10.734375 -7.8125 L 10.734375 -4.53125 L 5.753906 -4.53125 L 5.753906 -15.324219 L 15.710938 -15.324219 L 15.710938 -19.886719 L 0.773438 -19.886719 L 0.773438 0 Z M 15.710938 0 "/></g></g><g style="fill:#ffffff;fill-opacity:1;"><g transform="translate(189.314069, 39.121172)"><path style="stroke:none" d="M 15.710938 0 L 15.710938 -19.886719 L 10.734375 -19.886719 L 10.734375 -12.195312 L 5.753906 -12.195312 L 5.753906 -19.886719 L 0.773438 -19.886719 L 0.773438 0 L 5.753906 0 L 5.753906 -7.8125 L 10.734375 -7.8125 L 10.734375 0 Z M 15.710938 0 "/></g></g><g style="fill:#ffffff;fill-opacity:1;"><g transform="translate(205.467664, 39.121172)"><path style="stroke:none" d="M 15.382812 -15.324219 L 15.382812 -19.886719 L 0.445312 -19.886719 L 0.445312 -15.324219 L 5.457031 -15.324219 L 5.457031 0 L 10.433594 0 L 10.433594 -15.324219 Z M 15.382812 -15.324219 "/></g></g><g style="fill:#ffffff;fill-opacity:1;"><g transform="translate(224.353894, 39.825252)"><path style="stroke:none" d="M 1.925781 0 L 1.925781 -1.515625 L 0.257812 -1.515625 L 0.257812 0 Z M 1.925781 0 "/></g></g><g style="fill:#ffffff;fill-opacity:1;"><g transform="translate(226.537214, 39.825252)"><path style="stroke:none" d="M 5.148438 0 L 5.148438 -6.65625 L 0.148438 -6.65625 L 0.148438 -5.128906 L 0.480469 -5.128906 L 0.480469 0 L 1.816406 0 L 1.816406 -5.128906 L 3.484375 -5.128906 L 3.484375 0 Z M 5.148438 0 "/></g></g><g style="fill:#ffffff;fill-opacity:1;"><g transform="translate(231.940683, 39.825252)"><path style="stroke:none" d="M 5.238281 0 L 5.238281 -1.515625 L 1.925781 -1.515625 L 1.925781 -2.613281 L 5.238281 -2.613281 L 5.238281 -4.082031 L 1.925781 -4.082031 L 1.925781 -5.128906 L 5.238281 -5.128906 L 5.238281 -6.65625 L 0.257812 -6.65625 L 0.257812 0 Z M 5.238281 0 "/></g></g><g style="fill:#ffffff;fill-opacity:1;"><g transform="translate(237.433875, 39.825252)"><path style="stroke:none" d="M 5.148438 -5.128906 L 5.148438 -6.65625 L 0.148438 -6.65625 L 0.148438 -5.128906 L 1.828125 -5.128906 L 1.828125 0 L 3.492188 0 L 3.492188 -5.128906 Z M 5.148438 -5.128906 "/></g></g></g></svg>