<svg xmlns="http://www.w3.org/2000/svg" xmlns:xlink="http://www.w3.org/1999/xlink" width="500" zoomAndPan="magnify" viewBox="0 0 375 374.999991" height="500" preserveAspectRatio="xMidYMid meet" version="1.2"><defs><clipPath id="31e24488d1"><path d="M 53.582031 107 L 204 107 L 204 332 L 53.582031 332 Z M 53.582031 107 "/></clipPath><clipPath id="b579ce0391"><path d="M 53.582031 42 L 202 42 L 202 164 L 53.582031 164 Z M 53.582031 42 "/></clipPath></defs><g id="97f5114687"><g clip-rule="nonzero" clip-path="url(#31e24488d1)"><path style=" stroke:none;fill-rule:nonzero;fill:#ffffff;fill-opacity:1;" d="M 199.710938 107.945312 C 174.199219 141.550781 133.828125 163.257812 88.382812 163.257812 C 76.363281 163.257812 64.699219 161.734375 53.574219 158.878906 L 53.574219 301.035156 C 53.574219 324.695312 79.089844 339.570312 99.679688 327.902344 L 203.808594 268.894531 C 186.46875 245.621094 176.203125 216.769531 176.203125 185.515625 C 176.203125 156.8125 184.863281 130.136719 199.710938 107.945312 "/></g><g clip-rule="nonzero" clip-path="url(#b579ce0391)"><path style=" stroke:none;fill-rule:nonzero;fill:#00bf63;fill-opacity:1;" d="M 199.710938 107.945312 C 200.429688 106.867188 201.160156 105.796875 201.914062 104.742188 L 99.679688 46.808594 C 79.089844 35.140625 53.574219 50.015625 53.574219 73.675781 L 53.574219 158.878906 C 64.699219 161.734375 76.363281 163.257812 88.382812 163.257812 C 133.828125 163.257812 174.199219 141.550781 199.710938 107.945312 "/></g><path style=" stroke:none;fill-rule:nonzero;fill:#ff3131;fill-opacity:1;" d="M 300.289062 160.488281 L 202.03125 104.808594 C 201.273438 105.863281 200.496094 106.910156 199.710938 107.945312 C 184.863281 130.136719 176.203125 156.8125 176.203125 185.515625 C 176.203125 216.769531 186.46875 245.621094 203.808594 268.894531 L 300.289062 214.222656 C 321.164062 202.394531 321.164062 172.316406 300.289062 160.488281 "/><path style=" stroke:none;fill-rule:nonzero;fill:#000000;fill-opacity:1;" d="M 202.03125 104.808594 L 202.160156 104.902344 C 203.035156 103.691406 203.882812 102.460938 204.710938 101.21875 L 204.441406 101.027344 C 203.539062 102.21875 202.644531 103.421875 201.777344 104.644531 L 201.671875 104.792969 L 201.945312 104.949219 L 202.078125 105.027344 L 202.160156 104.902344 L 202.03125 104.808594 L 202.109375 104.660156 L 201.992188 104.597656 L 201.914062 104.742188 L 202.046875 104.835938 C 202.914062 103.617188 203.800781 102.417969 204.707031 101.230469 L 204.574219 101.128906 L 204.4375 101.039062 C 203.605469 102.277344 202.761719 103.5 201.894531 104.710938 L 202.03125 104.808594 L 202.109375 104.660156 L 202.03125 104.808594 "/><path style=" stroke:none;fill-rule:nonzero;fill:#000000;fill-opacity:1;" d="M 199.710938 107.945312 C 200.496094 106.910156 201.273438 105.863281 202.03125 104.808594 L 201.914062 104.742188 C 201.160156 105.796875 200.429688 106.867188 199.710938 107.945312 "/></g></svg>